<svg width="500" height="500" viewBox="0 0 500 500" fill="none" xmlns="http://www.w3.org/2000/svg">
<rect width="500" height="500" rx="50" fill="white" fill-opacity="0.1"/>
<g clip-path="url(#clip0_303_17655)">
<path d="M400 332.488C389.087 335.261 382.337 332.609 376.283 323.519L333.213 263.949L326.987 255.701L276.691 323.717C270.944 331.9 264.916 335.459 254.191 332.564L318.597 246.132L258.634 168.059C268.946 166.054 276.072 167.073 282.399 176.307L327.071 236.619L372.071 176.635C377.835 168.452 384.034 165.344 394.384 168.358L371.135 199.174L339.635 240.178C335.884 244.863 336.399 248.071 339.851 252.594L400 332.488ZM100.077 244.688L105.344 218.782C119.688 167.514 178.469 146.21 219.007 177.888C242.698 196.52 248.586 222.876 247.414 252.399H113.876C111.871 305.54 150.13 337.612 198.906 321.25C216.015 315.505 226.093 302.11 231.137 285.354C233.698 276.957 237.932 275.644 245.827 278.044C241.798 299.001 232.703 316.508 213.484 327.465C184.769 343.865 143.778 338.561 122.219 315.768C109.374 302.542 104.068 285.786 101.688 267.865C101.312 264.903 100.563 262.082 100 259.244C100.05 254.394 100.077 249.547 100.077 244.697V244.688ZM114.119 241.127H234.793C234.006 202.701 210.073 175.407 177.362 175.176C141.456 174.894 115.674 201.538 114.117 241.127H114.119Z" fill="black"/>
<g clip-path="url(#clip1_303_17655)">
<path d="M400 332.488C389.087 335.261 382.337 332.609 376.283 323.519L333.213 263.949L326.987 255.701L276.691 323.717C270.944 331.9 264.916 335.459 254.191 332.564L318.597 246.132L258.634 168.059C268.946 166.054 276.072 167.073 282.399 176.307L327.071 236.619L372.071 176.635C377.835 168.452 384.034 165.344 394.384 168.358L371.135 199.174L339.635 240.178C335.884 244.863 336.399 248.071 339.851 252.594L400 332.488ZM100.077 244.688L105.344 218.782C119.688 167.514 178.469 146.21 219.007 177.888C242.698 196.52 248.586 222.876 247.414 252.399H113.876C111.871 305.54 150.13 337.612 198.906 321.25C216.015 315.505 226.093 302.11 231.137 285.354C233.698 276.957 237.932 275.644 245.827 278.044C241.798 299.001 232.703 316.508 213.484 327.465C184.769 343.865 143.778 338.561 122.219 315.768C109.374 302.542 104.068 285.786 101.688 267.865C101.312 264.903 100.563 262.082 100 259.244C100.05 254.394 100.077 249.547 100.077 244.697V244.688ZM114.119 241.127H234.793C234.006 202.701 210.073 175.407 177.362 175.176C141.456 174.894 115.674 201.538 114.117 241.127H114.119Z" fill="white"/>
</g>
</g>
<defs>
<clipPath id="clip0_303_17655">
<rect width="300" height="174" fill="white" transform="translate(100 163)"/>
</clipPath>
<clipPath id="clip1_303_17655">
<rect width="300" height="174" fill="white" transform="translate(100 163)"/>
</clipPath>
</defs>
</svg>
